<svg width="41" height="40" viewBox="0 0 41 40" fill="none" xmlns="http://www.w3.org/2000/svg">
<rect x="0.549805" width="39.7251" height="39.7251" rx="7.44846" fill="white"/>
<path d="M15.3524 12.8625C15.3521 13.393 15.1411 13.9016 14.7659 14.2765C14.3906 14.6513 13.8818 14.8618 13.3514 14.8615C12.8209 14.8613 12.3123 14.6503 11.9374 14.275C11.5626 13.8998 11.3521 13.391 11.3524 12.8605C11.3526 12.3301 11.5636 11.8215 11.9388 11.4466C12.3141 11.0717 12.8229 10.8613 13.3534 10.8615C13.8838 10.8618 14.3924 11.0728 14.7673 11.448C15.1422 11.8233 15.3526 12.3321 15.3524 12.8625ZM15.4124 16.3425H11.4124V28.8625H15.4124V16.3425ZM21.7324 16.3425H17.7524V28.8625H21.6924V22.2925C21.6924 18.6325 26.4624 18.2925 26.4624 22.2925V28.8625H30.4124V20.9325C30.4124 14.7625 23.3524 14.9925 21.6924 18.0225L21.7324 16.3425Z" fill="black"/>
</svg>
