<svg width="164" height="35" viewBox="0 0 164 35" fill="none" xmlns="http://www.w3.org/2000/svg">
<path fill-rule="evenodd" clip-rule="evenodd" d="M20.9376 10.4377L14.7658 3.93237L8.5941 10.4377L0.5 14.2971L4.59935 21.8449L22.6355 13.9997L5.45855 27.3381L5.94907 31.0676L14.7658 29.4324L23.5826 31.0676L24.7519 22.1771L29.0317 14.2971L20.9376 10.4377Z" fill="black"/>
<path d="M56.8928 14.2087H53.0918C52.9834 13.5853 52.7835 13.0331 52.4922 12.5521C52.2008 12.0642 51.8384 11.6509 51.4047 11.3122C50.9711 10.9734 50.4765 10.7193 49.9209 10.5499C49.3721 10.3738 48.7793 10.2857 48.1424 10.2857C47.0109 10.2857 46.0081 10.5703 45.1341 11.1394C44.2601 11.7017 43.5757 12.5283 43.0811 13.6192C42.5865 14.7033 42.3392 16.0278 42.3392 17.593C42.3392 19.1852 42.5865 20.5267 43.0811 21.6176C43.5825 22.7016 44.2668 23.5215 45.1341 24.077C46.0081 24.6258 47.0075 24.9002 48.1322 24.9002C48.7556 24.9002 49.3382 24.8189 49.8803 24.6563C50.4291 24.4869 50.9203 24.2396 51.3539 23.9144C51.7943 23.5892 52.1636 23.1895 52.4617 22.7152C52.7666 22.2409 52.9766 21.6989 53.0918 21.0891L56.8928 21.1094C56.7505 22.0986 56.4423 23.0268 55.968 23.8941C55.5005 24.7614 54.8873 25.527 54.1285 26.191C53.3696 26.8482 52.482 27.3631 51.4657 27.7358C50.4494 28.1016 49.3213 28.2846 48.0814 28.2846C46.252 28.2846 44.6192 27.8611 43.1828 27.0142C41.7464 26.1673 40.6149 24.9443 39.7883 23.3453C38.9617 21.7463 38.5484 19.8289 38.5484 17.593C38.5484 15.3503 38.9651 13.4329 39.7985 11.8406C40.6318 10.2416 41.7667 9.01868 43.2031 8.17176C44.6395 7.32483 46.2656 6.90137 48.0814 6.90137C49.24 6.90137 50.3173 7.06398 51.3133 7.3892C52.3093 7.71442 53.1968 8.19209 53.976 8.8222C54.7552 9.44554 55.3955 10.2112 55.8968 11.1191C56.405 12.0202 56.737 13.0501 56.8928 14.2087ZM60.1831 28V12.3895H63.7504V14.9912H63.913C64.1976 14.0901 64.6854 13.3956 65.3765 12.9078C66.0743 12.4132 66.8705 12.1659 67.7648 12.1659C67.9681 12.1659 68.1951 12.176 68.4457 12.1964C68.7032 12.2099 68.9166 12.2336 69.086 12.2675V15.6518C68.9302 15.5976 68.6829 15.5502 68.3441 15.5095C68.0121 15.4621 67.6903 15.4384 67.3786 15.4384C66.7079 15.4384 66.1048 15.5841 65.5696 15.8754C65.0411 16.16 64.6244 16.5563 64.3195 17.0645C64.0146 17.5726 63.8622 18.1587 63.8622 18.8227V28H60.1831ZM77.7984 28.3049C76.2332 28.3049 74.8815 27.9797 73.7433 27.3292C72.6118 26.672 71.7411 25.7438 71.1313 24.5445C70.5216 23.3385 70.2167 21.9191 70.2167 20.2862C70.2167 18.6804 70.5216 17.2711 71.1313 16.0583C71.7479 14.8388 72.6084 13.8902 73.7128 13.2127C74.8172 12.5283 76.1147 12.1862 77.6053 12.1862C78.5674 12.1862 79.4753 12.342 80.329 12.6537C81.1894 12.9586 81.9483 13.4329 82.6055 14.0765C83.2695 14.7202 83.7912 15.54 84.1706 16.536C84.5501 17.5252 84.7398 18.7041 84.7398 20.0728V21.2009H71.9444V18.7211H81.2132C81.2064 18.0164 81.0539 17.3897 80.7558 16.8409C80.4577 16.2853 80.041 15.8483 79.5058 15.5299C78.9773 15.2114 78.3607 15.0522 77.6561 15.0522C76.904 15.0522 76.2434 15.2351 75.6743 15.601C75.1051 15.9601 74.6613 16.4344 74.3429 17.0238C74.0312 17.6065 73.872 18.2468 73.8652 18.9447V21.1094C73.8652 22.0173 74.0312 22.7965 74.3632 23.4469C74.6952 24.0906 75.1593 24.5852 75.7556 24.9307C76.3518 25.2695 77.0497 25.4389 77.8492 25.4389C78.3844 25.4389 78.8689 25.3644 79.3025 25.2153C79.7361 25.0595 80.1122 24.8325 80.4306 24.5344C80.749 24.2363 80.9896 23.867 81.1522 23.4266L84.5873 23.8128C84.3705 24.7207 83.9572 25.5134 83.3474 26.191C82.7444 26.8617 81.972 27.3834 81.0302 27.7561C80.0884 28.122 79.0112 28.3049 77.7984 28.3049ZM92.3443 28.3151C91.3551 28.3151 90.4641 28.1389 89.6714 27.7866C88.8855 27.4275 88.2621 26.899 87.8014 26.2011C87.3474 25.5033 87.1205 24.6428 87.1205 23.6197C87.1205 22.7389 87.2831 22.0105 87.6083 21.4346C87.9335 20.8587 88.3773 20.398 88.9397 20.0524C89.502 19.7069 90.1355 19.446 90.8402 19.2699C91.5516 19.0869 92.2867 18.9548 93.0456 18.8735C93.9602 18.7787 94.7022 18.694 95.2713 18.6194C95.8404 18.5381 96.2537 18.4162 96.5112 18.2536C96.7754 18.0842 96.9076 17.8233 96.9076 17.471V17.41C96.9076 16.6444 96.6806 16.0516 96.2266 15.6315C95.7727 15.2114 95.1188 15.0014 94.2651 15.0014C93.364 15.0014 92.6492 15.1979 92.1207 15.5908C91.599 15.9838 91.2467 16.4479 91.0638 16.9832L87.6286 16.4954C87.8996 15.5468 88.3468 14.7541 88.9702 14.1172C89.5935 13.4735 90.3557 12.9925 91.2569 12.674C92.158 12.3488 93.154 12.1862 94.2448 12.1862C94.9969 12.1862 95.7456 12.2743 96.4909 12.4504C97.2362 12.6266 97.9171 12.9179 98.5337 13.3245C99.1502 13.7242 99.6448 14.2696 100.017 14.9607C100.397 15.6518 100.587 16.5157 100.587 17.5523V28H97.0498V25.8556H96.9279C96.7043 26.2892 96.3892 26.6957 95.9827 27.0752C95.583 27.4478 95.0782 27.7493 94.4684 27.9797C93.8654 28.2033 93.1574 28.3151 92.3443 28.3151ZM93.2996 25.6117C94.0382 25.6117 94.6784 25.466 95.2205 25.1747C95.7625 24.8765 96.1792 24.4836 96.4705 23.9957C96.7687 23.5079 96.9177 22.976 96.9177 22.4001V20.5606C96.8025 20.6555 96.606 20.7435 96.3283 20.8248C96.0572 20.9061 95.7523 20.9773 95.4136 21.0383C95.0748 21.0992 94.7394 21.1534 94.4074 21.2009C94.0754 21.2483 93.7875 21.289 93.5436 21.3228C92.9948 21.3974 92.5035 21.5193 92.0699 21.6887C91.6363 21.8581 91.2941 22.0952 91.0434 22.4001C90.7927 22.6982 90.6674 23.0844 90.6674 23.5587C90.6674 24.2363 90.9147 24.7478 91.4093 25.0933C91.9039 25.4389 92.534 25.6117 93.2996 25.6117ZM112.081 12.3895V15.2351H103.107V12.3895H112.081ZM105.323 8.64943H109.002V23.3046C109.002 23.7992 109.076 24.1787 109.225 24.4429C109.381 24.7004 109.584 24.8765 109.835 24.9714C110.086 25.0662 110.364 25.1137 110.668 25.1137C110.899 25.1137 111.109 25.0967 111.299 25.0629C111.495 25.029 111.644 24.9985 111.746 24.9714L112.366 27.8476C112.169 27.9153 111.888 27.9898 111.522 28.0711C111.163 28.1524 110.723 28.1999 110.201 28.2134C109.279 28.2405 108.449 28.1016 107.711 27.7967C106.972 27.4851 106.386 27.004 105.953 26.3536C105.526 25.7031 105.316 24.8901 105.323 23.9144V8.64943ZM115.158 28V12.3895H118.837V28H115.158ZM117.008 10.1739C116.425 10.1739 115.924 9.98079 115.504 9.59459C115.083 9.20162 114.873 8.73073 114.873 8.18192C114.873 7.62634 115.083 7.15545 115.504 6.76925C115.924 6.37627 116.425 6.17979 117.008 6.17979C117.597 6.17979 118.098 6.37627 118.512 6.76925C118.932 7.15545 119.142 7.62634 119.142 8.18192C119.142 8.73073 118.932 9.20162 118.512 9.59459C118.098 9.98079 117.597 10.1739 117.008 10.1739ZM136.564 12.3895L131.005 28H126.94L121.38 12.3895H125.303L128.891 23.9856H129.053L132.651 12.3895H136.564ZM145.388 28.3049C143.864 28.3049 142.542 27.9695 141.425 27.2987C140.307 26.628 139.439 25.6896 138.823 24.4836C138.213 23.2775 137.908 21.8683 137.908 20.2557C137.908 18.6432 138.213 17.2305 138.823 16.0177C139.439 14.8049 140.307 13.8631 141.425 13.1923C142.542 12.5216 143.864 12.1862 145.388 12.1862C146.913 12.1862 148.234 12.5216 149.352 13.1923C150.47 13.8631 151.334 14.8049 151.943 16.0177C152.56 17.2305 152.868 18.6432 152.868 20.2557C152.868 21.8683 152.56 23.2775 151.943 24.4836C151.334 25.6896 150.47 26.628 149.352 27.2987C148.234 27.9695 146.913 28.3049 145.388 28.3049ZM145.408 25.3576C146.235 25.3576 146.926 25.1306 147.482 24.6767C148.037 24.2159 148.451 23.5994 148.722 22.827C148.999 22.0546 149.138 21.1941 149.138 20.2455C149.138 19.2902 148.999 18.4263 148.722 17.6539C148.451 16.8748 148.037 16.2548 147.482 15.7941C146.926 15.3334 146.235 15.103 145.408 15.103C144.562 15.103 143.857 15.3334 143.295 15.7941C142.739 16.2548 142.322 16.8748 142.044 17.6539C141.773 18.4263 141.638 19.2902 141.638 20.2455C141.638 21.1941 141.773 22.0546 142.044 22.827C142.322 23.5994 142.739 24.2159 143.295 24.6767C143.857 25.1306 144.562 25.3576 145.408 25.3576ZM158.257 28.2236C157.641 28.2236 157.112 28.0068 156.672 27.5731C156.231 27.1395 156.015 26.611 156.021 25.9877C156.015 25.3779 156.231 24.8562 156.672 24.4226C157.112 23.989 157.641 23.7721 158.257 23.7721C158.853 23.7721 159.372 23.989 159.812 24.4226C160.259 24.8562 160.486 25.3779 160.493 25.9877C160.486 26.401 160.378 26.777 160.168 27.1158C159.965 27.4546 159.694 27.7256 159.355 27.9289C159.023 28.1253 158.657 28.2236 158.257 28.2236Z" fill="black"/>
</svg>
